<svg width="178" height="34" viewBox="0 0 178 34" fill="none" xmlns="http://www.w3.org/2000/svg">
<path d="M8.32275 27.256C6.85075 27.256 5.60275 27.0107 4.57875 26.52C3.57608 26.0293 2.80808 25.3893 2.27475 24.6C1.74141 23.7893 1.44275 22.9147 1.37875 21.976H3.87475C3.93875 22.5093 4.12008 23.032 4.41875 23.544C4.73875 24.0347 5.21875 24.44 5.85875 24.76C6.49875 25.0587 7.33075 25.208 8.35475 25.208C8.67475 25.208 9.06941 25.176 9.53875 25.112C10.0081 25.048 10.4561 24.9307 10.8827 24.76C11.3307 24.5893 11.7041 24.3333 12.0027 23.992C12.3014 23.6507 12.4507 23.2133 12.4507 22.68C12.4507 22.0187 12.1947 21.5067 11.6827 21.144C11.1707 20.7813 10.5094 20.504 9.69875 20.312C8.88808 20.0987 8.02408 19.896 7.10675 19.704C6.21075 19.512 5.35741 19.2667 4.54675 18.968C3.73608 18.648 3.07475 18.2107 2.56275 17.656C2.05075 17.08 1.79475 16.3013 1.79475 15.32C1.79475 13.8693 2.31741 12.7493 3.36275 11.96C4.42941 11.1493 5.99741 10.744 8.06675 10.744C9.47475 10.744 10.6161 10.968 11.4907 11.416C12.3867 11.8427 13.0587 12.3973 13.5067 13.08C13.9761 13.7627 14.2534 14.4987 14.3387 15.288H11.9067C11.8214 14.6053 11.4801 14.0187 10.8827 13.528C10.3067 13.0373 9.34675 12.792 8.00275 12.792C5.46408 12.792 4.19475 13.56 4.19475 15.096C4.19475 15.736 4.45075 16.2267 4.96275 16.568C5.47475 16.9093 6.13608 17.1867 6.94675 17.4C7.75741 17.592 8.61075 17.784 9.50675 17.976C10.4241 18.1467 11.2881 18.392 12.0987 18.712C12.9094 19.032 13.5707 19.4907 14.0827 20.088C14.5947 20.664 14.8507 21.4533 14.8507 22.456C14.8507 24.0133 14.2534 25.208 13.0587 26.04C11.8854 26.8507 10.3067 27.256 8.32275 27.256ZM54.3632 27.256C52.8059 27.256 51.4406 26.8933 50.2672 26.168C49.1152 25.4213 48.2192 24.4187 47.5792 23.16C46.9392 21.9013 46.6192 20.5147 46.6192 19C46.6192 17.464 46.9392 16.0773 47.5792 14.84C48.2192 13.5813 49.1152 12.5893 50.2672 11.864C51.4406 11.1173 52.8059 10.744 54.3632 10.744C55.6859 10.744 56.8166 11 57.7552 11.512C58.7152 12.024 59.4939 12.7173 60.0912 13.592V11H62.4912V27H60.0912V24.44C59.4939 25.2933 58.7152 25.976 57.7552 26.488C56.8166 27 55.6859 27.256 54.3632 27.256ZM54.6832 25.08C55.8779 25.08 56.8806 24.8027 57.6912 24.248C58.5232 23.6933 59.1526 22.9573 59.5792 22.04C60.0059 21.1013 60.2192 20.088 60.2192 19C60.2192 17.8907 60.0059 16.8773 59.5792 15.96C59.1526 15.0427 58.5232 14.3067 57.6912 13.752C56.8806 13.1973 55.8779 12.92 54.6832 12.92C53.5099 12.92 52.4966 13.1973 51.6432 13.752C50.7899 14.3067 50.1392 15.0427 49.6912 15.96C49.2432 16.8773 49.0192 17.8907 49.0192 19C49.0192 20.088 49.2432 21.1013 49.6912 22.04C50.1392 22.9573 50.7899 23.6933 51.6432 24.248C52.4966 24.8027 53.5099 25.08 54.6832 25.08ZM65.0425 27V11H67.4425V13.432C67.8052 12.792 68.3812 12.184 69.1705 11.608C69.9598 11.032 71.0052 10.744 72.3065 10.744C73.3732 10.744 74.3545 11.032 75.2505 11.608C76.1678 12.1627 76.8825 12.952 77.3945 13.976C77.6078 13.6133 77.9385 13.176 78.3865 12.664C78.8558 12.152 79.4638 11.704 80.2105 11.32C80.9572 10.936 81.8532 10.744 82.8985 10.744C83.9225 10.744 84.8825 11.0107 85.7785 11.544C86.6745 12.0773 87.3998 12.8453 87.9545 13.848C88.5305 14.8293 88.8185 15.992 88.8185 17.336V27H86.4185V17.4C86.4185 16.056 86.0345 14.9787 85.2665 14.168C84.5198 13.336 83.5812 12.92 82.4505 12.92C81.2772 12.92 80.2638 13.3147 79.4105 14.104C78.5572 14.8933 78.1305 16.0027 78.1305 17.432V27H75.7305V17.4C75.7305 16.056 75.3465 14.9787 74.5785 14.168C73.8318 13.336 72.8932 12.92 71.7625 12.92C70.5892 12.92 69.5758 13.3147 68.7225 14.104C67.8692 14.8933 67.4425 16.0027 67.4425 17.432V27H65.0425ZM97.9757 27.256C96.4184 27.256 95.0531 26.8933 93.8797 26.168C92.7277 25.4213 91.8317 24.4187 91.1917 23.16C90.5517 21.9013 90.2317 20.5147 90.2317 19C90.2317 17.464 90.5517 16.0773 91.1917 14.84C91.8317 13.5813 92.7277 12.5893 93.8797 11.864C95.0531 11.1173 96.4184 10.744 97.9757 10.744C99.2984 10.744 100.429 11 101.368 11.512C102.328 12.024 103.106 12.7173 103.704 13.592V4.6H106.104V27H103.704V24.44C103.106 25.2933 102.328 25.976 101.368 26.488C100.429 27 99.2984 27.256 97.9757 27.256ZM98.2957 25.08C99.4904 25.08 100.493 24.8027 101.304 24.248C102.136 23.6933 102.765 22.9573 103.192 22.04C103.618 21.1013 103.832 20.088 103.832 19C103.832 17.8907 103.618 16.8773 103.192 15.96C102.765 15.0427 102.136 14.3067 101.304 13.752C100.493 13.1973 99.4904 12.92 98.2957 12.92C97.1224 12.92 96.1091 13.1973 95.2557 13.752C94.4024 14.3067 93.7517 15.0427 93.3037 15.96C92.8557 16.8773 92.6317 17.8907 92.6317 19C92.6317 20.088 92.8557 21.1013 93.3037 22.04C93.7517 22.9573 94.4024 23.6933 95.2557 24.248C96.1091 24.8027 97.1224 25.08 98.2957 25.08ZM115.407 27.256C113.85 27.256 112.484 26.8933 111.311 26.168C110.159 25.4213 109.263 24.4187 108.623 23.16C107.983 21.9013 107.663 20.5147 107.663 19C107.663 17.464 107.983 16.0773 108.623 14.84C109.263 13.5813 110.159 12.5893 111.311 11.864C112.484 11.1173 113.85 10.744 115.407 10.744C116.73 10.744 117.86 11 118.799 11.512C119.759 12.024 120.538 12.7173 121.135 13.592V11H123.535V27H121.135V24.44C120.538 25.2933 119.759 25.976 118.799 26.488C117.86 27 116.73 27.256 115.407 27.256ZM115.727 25.08C116.922 25.08 117.924 24.8027 118.735 24.248C119.567 23.6933 120.196 22.9573 120.623 22.04C121.05 21.1013 121.263 20.088 121.263 19C121.263 17.8907 121.05 16.8773 120.623 15.96C120.196 15.0427 119.567 14.3067 118.735 13.752C117.924 13.1973 116.922 12.92 115.727 12.92C114.554 12.92 113.54 13.1973 112.687 13.752C111.834 14.3067 111.183 15.0427 110.735 15.96C110.287 16.8773 110.063 17.8907 110.063 19C110.063 20.088 110.287 21.1013 110.735 22.04C111.183 22.9573 111.834 23.6933 112.687 24.248C113.54 24.8027 114.554 25.08 115.727 25.08ZM124.998 27V24.728L134.566 13.208H125.126V11H137.606V13.24L128.006 24.76H137.606V27H124.998ZM145.895 27.256C144.337 27.256 142.972 26.8933 141.799 26.168C140.647 25.4213 139.751 24.4187 139.111 23.16C138.471 21.9013 138.151 20.5147 138.151 19C138.151 17.464 138.471 16.0773 139.111 14.84C139.751 13.5813 140.647 12.5893 141.799 11.864C142.972 11.1173 144.337 10.744 145.895 10.744C147.217 10.744 148.348 11 149.287 11.512C150.247 12.024 151.025 12.7173 151.623 13.592V11H154.023V27H151.623V24.44C151.025 25.2933 150.247 25.976 149.287 26.488C148.348 27 147.217 27.256 145.895 27.256ZM146.215 25.08C147.409 25.08 148.412 24.8027 149.223 24.248C150.055 23.6933 150.684 22.9573 151.111 22.04C151.537 21.1013 151.751 20.088 151.751 19C151.751 17.8907 151.537 16.8773 151.111 15.96C150.684 15.0427 150.055 14.3067 149.223 13.752C148.412 13.1973 147.409 12.92 146.215 12.92C145.041 12.92 144.028 13.1973 143.175 13.752C142.321 14.3067 141.671 15.0427 141.223 15.96C140.775 16.8773 140.551 17.8907 140.551 19C140.551 20.088 140.775 21.1013 141.223 22.04C141.671 22.9573 142.321 23.6933 143.175 24.248C144.028 24.8027 145.041 25.08 146.215 25.08ZM156.478 8.312V5.176H159.07V8.312H156.478ZM156.574 27V11H158.974V27H156.574ZM161.536 27V11H163.936V13.496C164.512 12.728 165.216 12.0773 166.048 11.544C166.88 11.0107 167.947 10.744 169.248 10.744C170.358 10.744 171.392 11.0107 172.352 11.544C173.334 12.056 174.123 12.8347 174.72 13.88C175.339 14.904 175.648 16.1733 175.648 17.688V27H173.248V17.752C173.248 16.3013 172.832 15.1387 172 14.264C171.168 13.368 170.091 12.92 168.768 12.92C167.872 12.92 167.062 13.1227 166.336 13.528C165.611 13.9333 165.024 14.5093 164.576 15.256C164.15 15.9813 163.936 16.824 163.936 17.784V27H161.536Z" fill="black"/>
<path d="M19.7255 19.4357L25.1108 10.3274L24.8009 9.80333C24.3376 9.04451 24.038 8.20128 23.9205 7.32537C23.8031 6.44947 23.8702 5.55936 24.1178 4.70969C24.3654 3.86002 24.7882 3.0687 25.3603 2.3843C25.9325 1.6999 26.6418 1.13685 27.4449 0.729703C28.248 0.322559 29.1278 0.0799107 30.0304 0.016648C30.9329 -0.0466146 31.8392 0.0708434 32.6937 0.361814C33.5481 0.652784 34.3325 1.11113 34.999 1.70872C35.6654 2.30631 36.1997 3.03054 36.5691 3.83697C36.685 4.08319 36.7041 4.36244 36.6227 4.62151C36.5413 4.88058 36.3651 5.10136 36.1277 5.24177C35.9927 5.31827 35.8427 5.36605 35.6875 5.38197C35.5323 5.39789 35.3754 5.38159 35.2271 5.33414C35.0788 5.28669 34.9424 5.20916 34.827 5.10664C34.7116 5.00412 34.6196 4.87893 34.5572 4.73928C34.3129 4.20026 33.9583 3.71571 33.5151 3.31542C33.0719 2.91513 32.5495 2.60756 31.98 2.41161C31.4106 2.21566 30.8061 2.13548 30.2038 2.17599C29.6014 2.2165 29.0139 2.37685 28.4773 2.64718C27.9408 2.91752 27.4666 3.29212 27.0838 3.74796C26.701 4.2038 26.4178 4.73125 26.2515 5.29789C26.0852 5.86452 26.0394 6.45837 26.1169 7.04293C26.1944 7.62748 26.3935 8.19039 26.7021 8.69704C26.7065 8.70241 26.7102 8.70831 26.7131 8.7146L28.6268 11.9484C28.7239 12.1126 28.7751 12.299 28.7751 12.4887C28.7751 12.6783 28.7239 12.8647 28.6268 13.029L23.5597 21.5969C23.2623 22.0858 22.7795 22.4405 22.216 22.5842C21.6525 22.728 21.0536 22.6491 20.5493 22.3648C20.0449 22.0805 19.6756 21.6136 19.5214 21.0653C19.3672 20.5171 19.4405 19.9315 19.7255 19.4357ZM39.2354 14.0326H37.528L32.4153 5.38765C32.1178 4.89881 31.6351 4.54408 31.0716 4.40034C30.508 4.2566 29.9092 4.33542 29.4048 4.61973C28.9004 4.90404 28.5311 5.37093 28.3769 5.91922C28.2228 6.46751 28.2961 7.05303 28.5811 7.54889L33.3742 15.6535C33.4712 15.8176 33.6108 15.9539 33.7789 16.0488C33.9469 16.1436 34.1376 16.1936 34.3317 16.1938H39.2617C41.7371 16.1938 43.821 18.1714 43.7808 20.5879C43.7618 21.7146 43.2927 22.7895 42.4737 23.5836C41.6546 24.3776 40.5502 24.828 39.396 24.8388C39.1131 24.8354 38.8392 24.935 38.6274 25.118C38.4156 25.301 38.2812 25.5544 38.2503 25.8289C38.2374 25.9782 38.2565 26.1285 38.3064 26.2703C38.3562 26.412 38.4357 26.5421 38.5398 26.6522C38.6439 26.7623 38.7703 26.8501 38.911 26.91C39.0518 26.9699 39.2037 27.0005 39.3572 27C40.2401 26.9992 41.1139 26.8268 41.9278 26.4929C42.7417 26.1589 43.4793 25.67 44.0976 25.0547C44.7158 24.4395 45.2024 23.7102 45.5288 22.9094C45.8553 22.1086 46.0151 21.2524 45.9989 20.3907C45.9242 16.8408 42.8787 14.0326 39.241 14.0326H39.2354ZM41.567 20.4123C41.5116 19.2493 40.4849 18.3551 39.2936 18.3551H28.6724C28.4781 18.355 28.2871 18.4049 28.1188 18.4998C27.9505 18.5946 27.8107 18.7311 27.7135 18.8954L25.4775 22.6775C25.1757 23.1856 24.771 23.6283 24.2881 23.9786C23.8052 24.3288 23.2543 24.5794 22.6689 24.7149C22.0835 24.8504 21.476 24.8681 20.8834 24.7668C20.2908 24.6655 19.7256 24.4473 19.2222 24.1257C18.7188 23.804 18.2879 23.3856 17.9557 22.896C17.6235 22.4063 17.397 21.8557 17.29 21.2778C17.183 20.6998 17.1978 20.1067 17.3334 19.5345C17.4691 18.9623 17.7228 18.4231 18.079 17.9498C18.251 17.7311 18.3333 17.4577 18.3098 17.1829C18.2862 16.9081 18.1585 16.6517 17.9517 16.464C17.8373 16.3645 17.703 16.2893 17.5573 16.2431C17.4116 16.1968 17.2577 16.1806 17.1053 16.1955C16.9529 16.2104 16.8052 16.2559 16.6718 16.3294C16.5383 16.4028 16.422 16.5024 16.33 16.622C15.4761 17.7266 15.0098 19.0704 15.0003 20.4542C14.9871 21.886 15.4599 23.2817 16.3447 24.4237C17.2296 25.5656 18.4767 26.3895 19.8917 26.7668C21.3066 27.1441 22.8096 27.0536 24.1663 26.5093C25.5229 25.965 26.6568 24.9977 27.3911 23.7581L28.0304 22.6775H39.3531C39.653 22.6779 39.9498 22.6187 40.2256 22.5037C40.5014 22.3886 40.7504 22.22 40.9574 22.0082C41.1645 21.7964 41.3252 21.5457 41.43 21.2713C41.5348 20.997 41.5814 20.7047 41.567 20.4123Z" fill="black"/>
</svg>
