<svg width="31" height="27" viewBox="0 0 31 27" fill="none" xmlns="http://www.w3.org/2000/svg">
<path d="M4.72554 19.4357L10.1108 10.3274L9.80088 9.80333C9.33758 9.04451 9.038 8.20128 8.92053 7.32537C8.80306 6.44947 8.87018 5.55936 9.11777 4.70969C9.36537 3.86002 9.7882 3.0687 10.3603 2.3843C10.9325 1.6999 11.6418 1.13685 12.4449 0.729703C13.248 0.322559 14.1278 0.0799107 15.0304 0.016648C15.9329 -0.0466146 16.8392 0.0708434 17.6937 0.361814C18.5481 0.652784 19.3325 1.11113 19.999 1.70872C20.6654 2.30631 21.1997 3.03054 21.5691 3.83697C21.685 4.08319 21.7041 4.36244 21.6227 4.62151C21.5413 4.88058 21.3651 5.10136 21.1277 5.24177C20.9927 5.31827 20.8427 5.36605 20.6875 5.38197C20.5323 5.39789 20.3754 5.38159 20.2271 5.33414C20.0788 5.28669 19.9424 5.20916 19.827 5.10664C19.7116 5.00412 19.6196 4.87893 19.5572 4.73928C19.3129 4.20026 18.9583 3.71571 18.5151 3.31542C18.0719 2.91513 17.5495 2.60756 16.98 2.41161C16.4106 2.21566 15.8061 2.13548 15.2038 2.17599C14.6014 2.2165 14.0139 2.37685 13.4773 2.64718C12.9408 2.91752 12.4666 3.29212 12.0838 3.74796C11.701 4.2038 11.4178 4.73125 11.2515 5.29789C11.0852 5.86452 11.0394 6.45837 11.1169 7.04292C11.1944 7.62748 11.3935 8.19038 11.7021 8.69704C11.7065 8.70241 11.7102 8.70831 11.7131 8.7146L13.6268 11.9483C13.7239 12.1126 13.7751 12.299 13.7751 12.4887C13.7751 12.6783 13.7239 12.8647 13.6268 13.029L8.55972 21.5969C8.26228 22.0858 7.7795 22.4405 7.21599 22.5842C6.65248 22.728 6.05364 22.6491 5.54926 22.3648C5.04487 22.0805 4.67557 21.6136 4.52139 21.0653C4.3672 20.5171 4.44055 19.9315 4.72554 19.4357ZM24.2354 14.0326H22.528L17.4153 5.38765C17.1178 4.89881 16.6351 4.54408 16.0716 4.40034C15.508 4.25659 14.9092 4.33542 14.4048 4.61973C13.9004 4.90404 13.5311 5.37093 13.3769 5.91922C13.2228 6.46751 13.2961 7.05303 13.5811 7.54889L18.3742 15.6535C18.4712 15.8176 18.6108 15.9539 18.7789 16.0488C18.9469 16.1436 19.1376 16.1936 19.3317 16.1938H24.2617C26.7371 16.1938 28.821 18.1714 28.7808 20.5879C28.7618 21.7146 28.2927 22.7895 27.4737 23.5836C26.6546 24.3776 25.5502 24.828 24.396 24.8388C24.1131 24.8354 23.8392 24.935 23.6274 25.118C23.4156 25.301 23.2812 25.5544 23.2503 25.8289C23.2374 25.9782 23.2565 26.1285 23.3064 26.2703C23.3562 26.412 23.4357 26.5421 23.5398 26.6522C23.6439 26.7623 23.7703 26.8501 23.911 26.91C24.0518 26.9699 24.2037 27.0005 24.3572 27C25.2401 26.9992 26.1139 26.8268 26.9278 26.4929C27.7417 26.1589 28.4793 25.67 29.0976 25.0547C29.7158 24.4395 30.2024 23.7102 30.5288 22.9094C30.8553 22.1086 31.0151 21.2524 30.9989 20.3907C30.9242 16.8408 27.8787 14.0326 24.241 14.0326H24.2354ZM26.567 20.4123C26.5116 19.2493 25.4849 18.3551 24.2936 18.3551H13.6724C13.4781 18.355 13.2871 18.4049 13.1188 18.4998C12.9505 18.5946 12.8107 18.7311 12.7135 18.8954L10.4775 22.6775C10.1757 23.1856 9.771 23.6283 9.28811 23.9786C8.80522 24.3288 8.25427 24.5794 7.6689 24.7149C7.08352 24.8504 6.47599 24.8681 5.8834 24.7668C5.29081 24.6655 4.72558 24.4473 4.22221 24.1257C3.71885 23.804 3.28791 23.3856 2.9557 22.896C2.62349 22.4063 2.39698 21.8557 2.28999 21.2778C2.18301 20.6998 2.19779 20.1067 2.33344 19.5345C2.46908 18.9623 2.72275 18.4231 3.07896 17.9498C3.25101 17.7311 3.33331 17.4576 3.30976 17.1829C3.28622 16.9081 3.15853 16.6517 2.95166 16.464C2.83729 16.3645 2.70301 16.2893 2.55733 16.2431C2.41164 16.1968 2.25771 16.1806 2.10529 16.1955C1.95286 16.2104 1.80525 16.2559 1.6718 16.3294C1.53834 16.4028 1.42195 16.5024 1.32998 16.622C0.476129 17.7266 0.00982259 19.0704 0.000266774 20.4542C-0.012875 21.886 0.45986 23.2817 1.34471 24.4237C2.22955 25.5656 3.47674 26.3895 4.89165 26.7668C6.30656 27.1441 7.80961 27.0536 9.16626 26.5093C10.5229 25.965 11.6568 24.9977 12.3911 23.7581L13.0304 22.6775H24.3531C24.653 22.6779 24.9498 22.6187 25.2256 22.5037C25.5014 22.3886 25.7504 22.22 25.9574 22.0082C26.1645 21.7964 26.3252 21.5457 26.43 21.2713C26.5348 20.997 26.5814 20.7047 26.567 20.4123Z" fill="url(#paint0_linear_2_2)"/>
<path d="M26.0676 20.4369L26.0675 20.4361C26.0262 19.5685 25.2479 18.8551 24.2936 18.8551H13.6724H13.6723C13.5635 18.855 13.4572 18.883 13.3643 18.9354C13.2714 18.9877 13.1958 19.0621 13.1439 19.1499L10.9079 22.932L10.9074 22.9329C10.5704 23.5001 10.1192 23.9934 9.5817 24.3833C9.04426 24.7731 8.43174 25.0515 7.78167 25.202C7.13161 25.3525 6.4571 25.3721 5.79914 25.2596C5.14117 25.1471 4.51298 24.9048 3.95298 24.547C3.39296 24.1891 2.91266 23.7231 2.54195 23.1767C2.17121 22.6303 1.918 22.0151 1.79835 21.3688C1.67869 20.7224 1.69524 20.059 1.84692 19.4192C1.9986 18.7794 2.28209 18.1771 2.67946 17.6492L2.6859 17.6406L2.68599 17.6407C2.78039 17.5207 2.8242 17.3727 2.81159 17.2255C2.79912 17.08 2.73195 16.9416 2.61954 16.8378C2.55803 16.7852 2.48552 16.7448 2.40615 16.7196C2.32505 16.6939 2.23905 16.6848 2.15378 16.6931C2.06852 16.7015 1.98646 16.7269 1.9128 16.7674C1.83917 16.8079 1.77586 16.8624 1.72634 16.9268L1.72557 16.9278C0.938036 17.9466 0.509047 19.1844 0.500255 20.4576L0.500247 20.4587C0.488146 21.777 0.923301 23.0635 1.73994 24.1174C2.55676 25.1716 3.70977 25.9342 5.02047 26.2837C6.33128 26.6332 7.72382 26.5492 8.98009 26.0452C10.2361 25.5413 11.2835 24.6468 11.9608 23.5036L26.0676 20.4369ZM26.0676 20.4369C26.0786 20.66 26.0431 20.8831 25.9629 21.0929C25.8828 21.3028 25.7595 21.4954 25.5998 21.6587C25.4402 21.8221 25.2475 21.9528 25.0331 22.0422C24.8187 22.1316 24.5875 22.1778 24.3536 22.1775H24.3531H13.0304H12.7452L12.6001 22.423L11.961 23.5033L26.0676 20.4369ZM10.5412 10.5819L10.6917 10.3274L10.5412 10.0729L10.2313 9.54881L10.2313 9.54878L10.2276 9.54277C9.80026 8.84281 9.52428 8.06562 9.41609 7.25891C9.30791 6.45222 9.3697 5.6324 9.59781 4.84957C9.82593 4.06672 10.2157 3.33686 10.744 2.70499C11.2722 2.07308 11.9278 1.55245 12.671 1.17566C13.4142 0.798861 14.229 0.574043 15.0653 0.515424C15.9016 0.456806 16.7413 0.56567 17.5325 0.83512C18.3237 1.10456 19.0493 1.52874 19.6652 2.08097C20.281 2.63319 20.774 3.30174 21.1145 4.04519L21.1145 4.04521L21.1167 4.04997C21.1793 4.18289 21.1894 4.33261 21.1457 4.47163C21.1024 4.60953 21.0081 4.7303 20.8771 4.80903C20.8037 4.84994 20.7218 4.87583 20.6365 4.88458C20.5497 4.89349 20.462 4.88433 20.3795 4.85792C20.2969 4.83151 20.2219 4.78863 20.159 4.73277C20.0961 4.67695 20.0469 4.60951 20.0137 4.53532L20.0126 4.53288C19.7397 3.93071 19.3439 3.39026 18.8502 2.94436C18.3565 2.49849 17.7754 2.15651 17.1427 1.93882C16.5101 1.72113 15.8389 1.63214 15.1702 1.67712C14.5015 1.72209 13.8489 1.90011 13.2524 2.20066C12.6558 2.50122 12.1277 2.91814 11.7009 3.42643C11.274 3.93474 10.9576 4.52363 10.7717 5.1571C10.5858 5.7906 10.5346 6.45478 10.6212 7.10862C10.7079 7.76245 10.9306 8.39149 11.275 8.9571L11.2938 8.9879L11.2941 8.98834L13.1964 12.2029C13.2483 12.2906 13.2751 12.3891 13.2751 12.4887C13.2751 12.5882 13.2483 12.6867 13.1964 12.7744L13.1964 12.7744L8.13106 21.3395C7.90266 21.7134 7.5306 21.988 7.0924 22.0997C6.65302 22.2118 6.18646 22.15 5.79478 21.9293C5.40347 21.7087 5.12044 21.3486 5.00272 20.93C4.88534 20.5126 4.94047 20.0667 5.15761 19.6873L10.5412 10.5819ZM22.0976 14.2871L22.2428 14.5326H22.528H24.2354H24.241C27.6282 14.5326 30.4301 17.1443 30.499 20.4006C30.5138 21.194 30.3666 21.9827 30.0658 22.7207C29.7649 23.4588 29.3161 24.1319 28.7449 24.7003C28.1737 25.2688 27.4916 25.7211 26.738 26.0303C25.9844 26.3395 25.1749 26.4993 24.3568 26.5L24.3555 26.5C24.2696 26.5003 24.1848 26.4831 24.1068 26.4499C24.0288 26.4167 23.9596 26.3684 23.9032 26.3087C23.8468 26.2491 23.8044 26.1794 23.778 26.1044C23.7524 26.0315 23.7422 25.9546 23.7479 25.8783C23.7659 25.7331 23.8381 25.5968 23.9543 25.4963C24.0727 25.394 24.2279 25.3368 24.3901 25.3387L24.3901 25.3388L24.4006 25.3387C25.6815 25.3268 26.9093 24.8271 27.8217 23.9426C28.7345 23.0577 29.2594 21.8572 29.2808 20.5963L29.2808 20.5962C29.3259 17.8758 26.9914 15.6938 24.2617 15.6938H19.3322C19.2235 15.6937 19.1173 15.6657 19.0246 15.6133C18.9319 15.561 18.8564 15.4867 18.8045 15.399L14.0131 7.29718C13.796 6.91786 13.7409 6.47193 13.8583 6.05458C13.976 5.63595 14.259 5.27587 14.6503 5.0553C15.042 4.83452 15.5086 4.77274 15.948 4.88482C16.3862 4.9966 16.7582 5.27116 16.9866 5.64505L22.0976 14.2871ZM0.000687204 20.4542L0.000266774 20.4542L0.000687204 20.4542ZM13.0304 22.6775H24.3531H13.0304Z" stroke="black" stroke-opacity="0.01"/>
<defs>
<linearGradient id="paint0_linear_2_2" x1="5" y1="13" x2="26" y2="22.5" gradientUnits="userSpaceOnUse">
<stop stop-color="#9229CA"/>
<stop offset="1" stop-color="#481464"/>
</linearGradient>
</defs>
</svg>
